<svg width="20" height="20" viewBox="0 0 20 20" fill="none" xmlns="http://www.w3.org/2000/svg">
<path d="M9.16659 16.5837V3.41699C9.16659 2.16699 8.63325 1.66699 7.30825 1.66699H3.94159C2.61659 1.66699 2.08325 2.16699 2.08325 3.41699V16.5837C2.08325 17.8337 2.61659 18.3337 3.94159 18.3337H7.30825C8.63325 18.3337 9.16659 17.8337 9.16659 16.5837Z" fill="#003A31"/>
<path opacity="0.4" d="M17.9166 9.08366V3.41699C17.9166 2.16699 17.3833 1.66699 16.0583 1.66699H12.6916C11.3666 1.66699 10.8333 2.16699 10.8333 3.41699V9.08366C10.8333 10.3337 11.3666 10.8337 12.6916 10.8337H16.0583C17.3833 10.8337 17.9166 10.3337 17.9166 9.08366Z" fill="#003A31"/>
<path opacity="0.4" d="M17.9166 16.5833V14.25C17.9166 13 17.3833 12.5 16.0583 12.5H12.6916C11.3666 12.5 10.8333 13 10.8333 14.25V16.5833C10.8333 17.8333 11.3666 18.3333 12.6916 18.3333H16.0583C17.3833 18.3333 17.9166 17.8333 17.9166 16.5833Z" fill="#003A31"/>
</svg>
